<svg width="100" height="100" viewBox="0 0 100 100" fill="none" xmlns="http://www.w3.org/2000/svg">
<path d="M94 41.0001L59 6.00013C50.9999 -2.00004 38.5001 -2.00004 30.5001 6.00013C22.4999 14.0003 22.4999 26.5001 30.5001 34.5001L65.5 69.5C77.4998 80.5004 90 73.4997 94 69.5C102 61.4992 102 49.0001 94 41.0001ZM38.0001 26.9997C34.0004 23.0001 34.0004 16.9998 38.0001 13.0001C39.9999 11.0003 46.0002 7.49995 51.9997 13.0001L65.9993 26.9997L51.9997 40.9994L38.0001 26.9997ZM87 61.9997C83.0004 65.9993 76.4998 65.9993 73.0004 61.9997L59.0007 48.0001L73.0004 34.0004L87 48.0001C91.0004 51.9997 91.0004 58.5002 87 61.9997Z" fill="#F87539"/>
<path d="M15 70.0002C6.49963 70.0002 0 76.4998 0 85.0001C0 93.5005 6.49963 100 15 100C23.5003 100 30 93.5005 30 85.0001C30 76.4998 23.0001 70.0002 15 70.0002ZM15 90.0001C11.9998 90.0001 9.99999 88.0003 9.99999 85.0001C9.99999 82 11.9998 80.0002 15 80.0002C18.0002 80.0002 20 82 20 85.0001C20 88.0003 17.5 90.0001 15 90.0001Z" fill="#F87539"/>
<path d="M49.9996 70.0002C41.4993 70.0002 34.9997 76.4998 34.9997 85.0001C34.9997 93.5005 41.4993 100 49.9996 100C58.5 100 64.9996 93.5005 64.9996 85.0001C64.9996 76.4998 57.9998 70.0002 49.9996 70.0002ZM49.9996 90.0001C46.9995 90.0001 44.9997 88.0003 44.9997 85.0001C44.9997 82 46.9995 80.0002 49.9996 80.0002C52.9998 80.0002 54.9996 82 54.9996 85.0001C54.9996 88.0003 52.4996 90.0001 49.9996 90.0001Z" fill="#535DE1"/>
<path d="M15 35.0001C6.49963 35.0001 0 41.4997 0 50.0001C0 58.5004 6.49963 65.0001 15 65.0001C23.5003 65.0001 30 58.5004 30 50.0001C30 41.4997 23.0001 35.0001 15 35.0001ZM15 55.0001C11.9998 55.0001 9.99999 53.0002 9.99999 50.0001C9.99999 46.9999 11.9998 45.0001 15 45.0001C18.0002 45.0001 20 46.9999 20 50.0001C20 53.0002 17.5 55.0001 15 55.0001Z" fill="#535DE1"/>
</svg>
