<svg width="102" height="190" viewBox="0 0 102 190" fill="none" xmlns="http://www.w3.org/2000/svg">
<path d="M91.8017 51.97C91.5625 51.8144 91.3072 51.6779 91.0357 51.5635C89.5124 50.9281 85.1071 48.7841 83.0671 46.5166C82.2673 45.5217 81.6598 41.6842 81.5395 37.5709C85.3008 36.2311 88.0184 32.6694 88.0184 28.4532V9.71319C88.0184 4.35675 83.6613 0 78.3052 0H24.523C19.1666 0 14.8098 4.35713 14.8098 9.71319V28.4547C14.8098 32.3156 17.0888 35.6264 20.3571 37.1923C20.2602 41.41 19.638 45.5072 18.8338 46.508C16.7823 48.787 12.3766 50.9323 10.8521 51.565C10.585 51.678 10.3326 51.8115 10.0964 51.9671C3.93599 55.0723 0 61.4135 0 68.3459V170.997C0 181.114 8.22963 189.343 18.3452 189.343H83.5406C93.6561 189.343 101.886 181.114 101.886 170.997L101.889 68.3422C101.889 61.4143 97.9542 55.0762 91.8009 51.9678L91.8017 51.97ZM24.0517 9.71356C24.0517 9.45235 24.2645 9.2425 24.5228 9.2425H78.305C78.5662 9.2425 78.7761 9.45529 78.7761 9.71356V28.4551C78.7761 28.7163 78.5633 28.9261 78.305 28.9261H24.5228C24.2616 28.9261 24.0517 28.7134 24.0517 28.4551V9.71356ZM92.647 170.996C92.647 176.017 88.563 180.102 83.5443 180.102H18.3489C13.3287 180.102 9.24618 176.017 9.24618 170.996L9.24471 68.3458C9.24471 64.7754 11.355 61.5175 14.6173 60.0486C14.7817 59.9752 14.9372 59.893 15.0884 59.802C17.0768 58.9142 22.4524 56.3006 25.7028 52.6889C28.585 49.4883 29.3994 43.2278 29.5828 38.5893H72.3088C72.4893 43.2308 73.3067 49.4885 76.1889 52.6889C79.4364 56.299 84.8062 58.9098 86.7958 59.8005C86.9469 59.8915 87.1069 59.9737 87.2712 60.0471C90.5364 61.5161 92.6468 64.7739 92.6468 68.3443L92.647 170.996Z" fill="#FF783B"/>
<path d="M26.249 66.2158C19.8846 66.2158 14.707 71.393 14.707 77.7548V109.783C14.707 116.145 19.8842 121.322 26.249 121.322C32.6107 121.322 37.788 116.145 37.788 109.783V77.7548C37.788 71.393 32.6107 66.2158 26.249 66.2158ZM28.5456 109.783C28.5456 111.051 27.5154 112.08 26.249 112.08C24.9811 112.08 23.9494 111.05 23.9494 109.783V77.7551C23.9494 76.4872 24.9796 75.4585 26.249 75.4585C27.5169 75.4585 28.5456 76.4887 28.5456 77.7551V109.783Z" fill="#FF783B"/>
</svg>
