<svg width="20" height="20" viewBox="0 0 20 20" fill="none" xmlns="http://www.w3.org/2000/svg">
<path d="M19.1488 3.4375H5.0044L4.69162 1.93359C4.62212 1.55762 4.27459 1.25 3.89231 1.25H0.417033C0.173764 1.25 0 1.45508 0 1.66015V2.48047C0 2.71972 0.173764 2.89062 0.417033 2.89062H3.19725L5.5952 15.0586C5.21291 15.4687 5.0044 15.9814 5.0044 16.5625C5.0044 17.793 5.97748 18.75 7.22858 18.75C8.44492 18.75 9.45275 17.793 9.45275 16.5625C9.45275 16.2549 9.31374 15.7764 9.13998 15.4687H14.1791C14.0054 15.7764 13.9011 16.2549 13.9011 16.5625C13.9011 17.793 14.8742 18.75 16.1253 18.75C17.3416 18.75 18.3495 17.793 18.3495 16.5625C18.3495 15.9473 18.0714 15.4004 17.6544 14.9902L17.6892 14.8535C17.7934 14.3408 17.4111 13.8281 16.8551 13.8281H7.05481L6.74204 12.1875H17.5849C18.0019 12.1875 18.3147 11.9482 18.419 11.5723L19.9828 4.46289C20.0871 3.95019 19.7048 3.4375 19.1488 3.4375ZM7.22858 17.3828C6.74204 17.3828 6.39451 17.041 6.39451 16.5625C6.39451 16.1182 6.74204 15.7422 7.22858 15.7422C7.68036 15.7422 8.06264 16.1182 8.06264 16.5625C8.06264 17.041 7.68036 17.3828 7.22858 17.3828ZM16.1253 17.3828C15.6387 17.3828 15.2912 17.041 15.2912 16.5625C15.2912 16.1182 15.6387 15.7422 16.1253 15.7422C16.5771 15.7422 16.9593 16.1182 16.9593 16.5625C16.9593 17.041 16.5771 17.3828 16.1253 17.3828ZM16.9246 10.5469H6.39451L5.31717 5.07812H18.1409L16.9246 10.5469Z" fill="#535DE1"/>
</svg>
