<svg width="16" height="16" viewBox="0 0 16 16" fill="none" xmlns="http://www.w3.org/2000/svg">
<path d="M14.2099 7.20977H13.6218C12.2389 7.20977 11.546 5.5378 12.524 4.55978L12.9396 4.14364C13.0767 3.99649 13.1512 3.80191 13.1477 3.60087C13.1441 3.39983 13.0626 3.20803 12.9204 3.06587C12.7782 2.92371 12.5864 2.84228 12.3853 2.83875C12.1843 2.83521 11.9897 2.90984 11.8426 3.04691L11.4268 3.46224C10.4487 4.43999 8.77677 3.74741 8.77677 2.36442V1.77636C8.77677 1.57045 8.69497 1.37299 8.54938 1.22739C8.40378 1.08179 8.20631 1 8.00041 1C7.79451 1 7.59704 1.08179 7.45144 1.22739C7.30585 1.37299 7.22405 1.57045 7.22405 1.77636V2.3647C7.22405 3.74768 5.55209 4.44026 4.57407 3.46251L4.15819 3.04691C4.01108 2.90984 3.81652 2.83521 3.61548 2.83875C3.41443 2.84228 3.22261 2.92371 3.08042 3.06587C2.93822 3.20803 2.85675 3.39983 2.85316 3.60087C2.84958 3.80191 2.92416 3.99649 3.06119 4.14364L3.47734 4.55978C4.45536 5.5378 3.76251 7.20977 2.37953 7.20977H1.79091C1.68775 7.20784 1.58524 7.22648 1.48937 7.26462C1.3935 7.30276 1.3062 7.35963 1.23256 7.4319C1.15892 7.50417 1.10043 7.5904 1.0605 7.68553C1.02057 7.78067 1 7.88281 1 7.98599C1 8.08917 1.02057 8.19131 1.0605 8.28645C1.10043 8.38159 1.15892 8.46781 1.23256 8.54008C1.3062 8.61235 1.3935 8.66922 1.48937 8.70736C1.58524 8.7455 1.68775 8.76415 1.79091 8.76221H2.37898C3.76196 8.76221 4.45482 10.4345 3.4768 11.4125L3.06119 11.8283C2.9255 11.9757 2.85205 12.1699 2.85619 12.3702C2.86033 12.5705 2.94174 12.7615 3.08341 12.9031C3.22508 13.0448 3.41603 13.1262 3.61633 13.1304C3.81664 13.1345 4.01079 13.061 4.15819 12.9253L4.57407 12.5092C5.55209 11.5312 7.22405 12.224 7.22405 13.607V14.1948C7.22405 14.4007 7.30585 14.5982 7.45144 14.7438C7.59704 14.8894 7.79451 14.9712 8.00041 14.9712C8.20631 14.9712 8.40378 14.8894 8.54938 14.7438C8.69497 14.5982 8.77677 14.4007 8.77677 14.1948V13.6076C8.77677 12.2246 10.4487 11.5317 11.4268 12.5097L11.8426 12.9253C11.99 13.061 12.1842 13.1345 12.3845 13.1304C12.5848 13.1262 12.7757 13.0448 12.9174 12.9031C13.0591 12.7615 13.1405 12.5705 13.1446 12.3702C13.1488 12.1699 13.0753 11.9757 12.9396 11.8283L12.5235 11.4125C11.5455 10.4345 12.2383 8.76221 13.6213 8.76221H14.2091C14.3122 8.76415 14.4148 8.7455 14.5106 8.70736C14.6065 8.66922 14.6938 8.61235 14.7674 8.54008C14.8411 8.46781 14.8996 8.38159 14.9395 8.28645C14.9794 8.19131 15 8.08917 15 7.98599C15 7.88281 14.9794 7.78067 14.9395 7.68553C14.8996 7.5904 14.8411 7.50417 14.7674 7.4319C14.6938 7.35963 14.6065 7.30276 14.5106 7.26462C14.4148 7.22648 14.3122 7.20784 14.2091 7.20977H14.2099ZM7.12718 8.42274C6.86811 8.42274 6.61487 8.34592 6.39946 8.202C6.18406 8.05807 6.01617 7.8535 5.91704 7.61415C5.8179 7.37481 5.79196 7.11144 5.8425 6.85736C5.89304 6.60327 6.01779 6.36988 6.20097 6.18669C6.38416 6.00351 6.61755 5.87876 6.87164 5.82822C7.12572 5.77768 7.38909 5.80362 7.62843 5.90275C7.86778 6.00189 8.07235 6.16978 8.21628 6.38518C8.3602 6.60059 8.43703 6.85383 8.43703 7.1129C8.43703 7.46029 8.29902 7.79345 8.05338 8.0391C7.80774 8.28474 7.47457 8.42274 7.12718 8.42274ZM9.31026 9.9509C9.18073 9.9509 9.0541 9.91249 8.9464 9.84053C8.8387 9.76856 8.75476 9.66628 8.70519 9.5466C8.65562 9.42693 8.64265 9.29525 8.66792 9.16821C8.69319 9.04116 8.75556 8.92447 8.84716 8.83288C8.93875 8.74128 9.05544 8.67891 9.18249 8.65364C9.30953 8.62837 9.44121 8.64134 9.56088 8.69091C9.68056 8.74048 9.78284 8.82442 9.85481 8.93212C9.92677 9.03982 9.96518 9.16644 9.96518 9.29598C9.96518 9.46967 9.89618 9.63626 9.77336 9.75908C9.65054 9.8819 9.48395 9.9509 9.31026 9.9509Z" fill="#535DE1"/>
</svg>
