<svg width="12" height="12" viewBox="0 0 12 12" fill="none" xmlns="http://www.w3.org/2000/svg">
<path d="M9.5 2H2.5C2.22386 2 2 2.22386 2 2.5V3.29289C2 3.4255 2.05268 3.55268 2.14645 3.64645L4.85355 6.35355C4.94732 6.44732 5 6.5745 5 6.70711V9.69098C5 10.0627 5.39116 10.3044 5.72361 10.1382L6.72361 9.6382C6.893 9.5535 7 9.38037 7 9.19098V6.70711C7 6.5745 7.05268 6.44732 7.14645 6.35355L9.85355 3.64645C9.94732 3.55268 10 3.4255 10 3.29289V2.5C10 2.22386 9.77614 2 9.5 2Z" stroke="#535DE1" stroke-linecap="round" stroke-linejoin="round"/>
</svg>
