<svg width="20" height="18" viewBox="0 0 20 18" fill="none" xmlns="http://www.w3.org/2000/svg">
<path d="M10 17L9.63507 17.6552C9.86195 17.7816 10.1381 17.7816 10.3649 17.6552L10 17ZM10 4.16221L9.30974 4.45554C9.42741 4.73243 9.69915 4.91221 10 4.91221C10.3009 4.91221 10.5726 4.73243 10.6903 4.45554L10 4.16221ZM0.25 5.97234C0.25 9.32921 2.73273 12.2804 5.00103 14.3018C6.15905 15.3337 7.3136 16.1693 8.177 16.7464C8.60944 17.0354 8.97067 17.2607 9.2252 17.4147C9.35251 17.4916 9.45325 17.5508 9.52301 17.5912C9.55789 17.6114 9.58504 17.627 9.6039 17.6377C9.61333 17.643 9.62069 17.6472 9.6259 17.6501C9.62851 17.6516 9.63059 17.6527 9.63212 17.6536C9.63288 17.654 9.63351 17.6544 9.634 17.6546C9.63425 17.6548 9.63452 17.6549 9.63464 17.655C9.63487 17.6551 9.63507 17.6552 10 17C10.3649 16.3448 10.3651 16.3448 10.3652 16.3449C10.3651 16.3449 10.3652 16.3449 10.3652 16.3449C10.3651 16.3449 10.3649 16.3448 10.3646 16.3446C10.364 16.3442 10.3628 16.3436 10.3611 16.3426C10.3576 16.3407 10.3521 16.3375 10.3445 16.3332C10.3293 16.3246 10.3059 16.3112 10.2748 16.2932C10.2128 16.2573 10.1201 16.2029 10.0014 16.1311C9.76371 15.9874 9.42181 15.7741 9.0105 15.4992C8.1864 14.9485 7.09095 14.155 5.99897 13.1819C3.76727 11.1932 1.75 8.63058 1.75 5.97234H0.25ZM10.6903 3.86887C9.55434 1.19593 6.97261 -0.0321031 4.64277 0.30447C3.47447 0.473244 2.36535 1.03683 1.55047 2.00797C0.733534 2.98156 0.25 4.319 0.25 5.97234H1.75C1.75 4.61812 2.14147 3.63724 2.69953 2.97215C3.25965 2.30463 4.02553 1.90921 4.85723 1.78906C6.52739 1.54778 8.44566 2.42224 9.30974 4.45554L10.6903 3.86887ZM18.25 5.97234C18.25 8.63058 16.2327 11.1932 14.001 13.1819C12.909 14.155 11.8136 14.9485 10.9895 15.4992C10.5782 15.7741 10.2363 15.9874 9.99864 16.1311C9.87985 16.2029 9.78724 16.2573 9.72516 16.2932C9.69413 16.3112 9.67073 16.3246 9.65553 16.3332C9.64793 16.3375 9.64238 16.3407 9.63895 16.3426C9.63723 16.3436 9.63605 16.3442 9.6354 16.3446C9.63507 16.3448 9.63488 16.3449 9.63483 16.3449C9.6348 16.3449 9.63486 16.3449 9.63485 16.3449C9.63494 16.3448 9.63507 16.3448 10 17C10.3649 17.6552 10.3651 17.6551 10.3654 17.655C10.3655 17.6549 10.3657 17.6548 10.366 17.6546C10.3665 17.6544 10.3671 17.654 10.3679 17.6536C10.3694 17.6527 10.3715 17.6516 10.3741 17.6501C10.3793 17.6472 10.3867 17.643 10.3961 17.6377C10.415 17.627 10.4421 17.6114 10.477 17.5912C10.5467 17.5508 10.6475 17.4916 10.7748 17.4147C11.0293 17.2607 11.3906 17.0354 11.823 16.7464C12.6864 16.1693 13.841 15.3337 14.999 14.3018C17.2673 12.2804 19.75 9.32921 19.75 5.97234H18.25ZM10.6903 4.45554C11.5543 2.42224 13.4726 1.54778 15.1428 1.78906C15.9745 1.90921 16.7403 2.30463 17.3005 2.97215C17.8585 3.63724 18.25 4.61812 18.25 5.97234H19.75C19.75 4.319 19.2665 2.98156 18.4495 2.00797C17.6347 1.03683 16.5255 0.473244 15.3572 0.30447C13.0274 -0.0321031 10.4457 1.19593 9.30974 3.86887L10.6903 4.45554Z" fill="#FF783B"/>
</svg>
