<svg width="13" height="12" viewBox="0 0 13 12" fill="none" xmlns="http://www.w3.org/2000/svg">
<path d="M6.35355 8.35355C6.54882 8.15829 6.54882 7.84171 6.35355 7.64645C6.15829 7.45118 5.84171 7.45118 5.64645 7.64645L6.35355 8.35355ZM4.5 9.5L4.14645 9.85355C4.34171 10.0488 4.65829 10.0488 4.85355 9.85355L4.5 9.5ZM3.35355 7.64645C3.15829 7.45118 2.84171 7.45118 2.64645 7.64645C2.45118 7.84171 2.45118 8.15829 2.64645 8.35355L3.35355 7.64645ZM5.64645 7.64645L4.14645 9.14645L4.85355 9.85355L6.35355 8.35355L5.64645 7.64645ZM4.85355 9.14645L3.35355 7.64645L2.64645 8.35355L4.14645 9.85355L4.85355 9.14645Z" fill="#535DE1"/>
<path d="M6.64645 3.64645C6.45118 3.84171 6.45118 4.15829 6.64645 4.35355C6.84171 4.54882 7.15829 4.54882 7.35355 4.35355L6.64645 3.64645ZM8.5 2.5L8.85355 2.14645C8.65829 1.95118 8.34171 1.95118 8.14645 2.14645L8.5 2.5ZM9.64645 4.35355C9.84171 4.54882 10.1583 4.54882 10.3536 4.35355C10.5488 4.15829 10.5488 3.84171 10.3536 3.64645L9.64645 4.35355ZM7.35355 4.35355L8.85355 2.85355L8.14645 2.14645L6.64645 3.64645L7.35355 4.35355ZM8.14645 2.85355L9.64645 4.35355L10.3536 3.64645L8.85355 2.14645L8.14645 2.85355Z" fill="#535DE1"/>
<path d="M8 9.5C8 9.77614 8.22386 10 8.5 10C8.77614 10 9 9.77614 9 9.5H8ZM9 2.5C9 2.22386 8.77614 2 8.5 2C8.22386 2 8 2.22386 8 2.5L9 2.5ZM9 9.5L9 2.5L8 2.5L8 9.5H9Z" fill="#535DE1"/>
<path d="M5 2.5C5 2.22386 4.77614 2 4.5 2C4.22386 2 4 2.22386 4 2.5H5ZM4 9.5C4 9.77614 4.22386 10 4.5 10C4.77614 10 5 9.77614 5 9.5H4ZM4 2.5V9.5H5V2.5H4Z" fill="#535DE1"/>
</svg>
