<svg width="20" height="20" viewBox="0 0 20 20" fill="none" xmlns="http://www.w3.org/2000/svg">
<path fill-rule="evenodd" clip-rule="evenodd" d="M3.25 8.33333C3.25 5.52589 5.52589 3.25 8.33333 3.25C11.1408 3.25 13.4167 5.52589 13.4167 8.33333C13.4167 11.1408 11.1408 13.4167 8.33333 13.4167C5.52589 13.4167 3.25 11.1408 3.25 8.33333ZM8.33333 1.75C4.69746 1.75 1.75 4.69746 1.75 8.33333C1.75 11.9692 4.69746 14.9167 8.33333 14.9167C9.88105 14.9167 11.304 14.3826 12.428 13.4887L16.9697 18.0303C17.2626 18.3232 17.7374 18.3232 18.0303 18.0303C18.3232 17.7374 18.3232 17.2626 18.0303 16.9697L13.4887 12.428C14.3826 11.304 14.9167 9.88105 14.9167 8.33333C14.9167 4.69746 11.9692 1.75 8.33333 1.75Z" fill="#373843" fill-opacity="0.4"/>
</svg>
